<?xml version="1.0" encoding="utf-8"?>
<!-- Generator: Adobe Illustrator 16.0.0, SVG Export Plug-In . SVG Version: 6.00 Build 0)  -->
<!DOCTYPE svg PUBLIC "-//W3C//DTD SVG 1.1//EN" "http://www.w3.org/Graphics/SVG/1.1/DTD/svg11.dtd">
<svg version="1.1" id="katman_1" xmlns="http://www.w3.org/2000/svg" xmlns:xlink="http://www.w3.org/1999/xlink" x="0px" y="0px"
	 width="500px" height="600px" viewBox="0 0 500 600" enable-background="new 0 0 500 600" xml:space="preserve">
<g>
	<path fill="#FFFFFF" d="M250,221.446c-23.691,0-43.018,19.327-43.641,43.018l0,0v15.586h87.282v-15.586l0,0
		C293.018,240.149,273.691,221.446,250,221.446z"/>
	<path fill="#FFFFFF" d="M250,19.451c0,0-124.688,109.726-250,109.726c0,107.855,0.624,213.217,46.758,294.887
		C94.14,507.606,186.409,566.209,250,580.549c62.968-16.21,151.496-75.437,198.254-157.107C495.013,341.771,500,237.656,500,129.177
		C374.688,129.177,250,19.451,250,19.451z M324.812,383.541c0,7.481-6.234,14.34-14.339,14.34H189.526
		c-7.481,0-14.339-6.234-14.339-14.34V280.05h12.469v-15.586l0,0c0.624-34.289,28.055-61.721,62.344-61.721
		s61.721,27.432,62.344,61.721l0,0v15.586h12.469V383.541z"/>
</g>
</svg>
